{"title":"Black Death-AC3-XviD-DVDRip[Eng]2010 2Lions-Team","uid":5737029,"size":1463324473,"categoryP":"video","categoryS":"movies","magnet":"?xt=urn:btih:6a21b0aa5c4cac816b6c7c69c68cbab24c5d43d0&amp;dn=Black+Death-AC3-XviD-DVDRip%5BEng%5D2010+2Lions-Team&amp;tr=udp%3A%2F%2Ftracker.openbittorrent.com%3A80&amp;tr=udp%3A%2F%2Fopen.demonii.com%3A1337&amp;tr=udp%3A%2F%2Ftracker.coppersurfer.tk%3A6969&amp;tr=udp%3A%2F%2Fexodus.desync.com%3A6969","seeders":0,"leechers":1,"uploader":"Silkenrune","files":12,"time":1280853772,"description":"Set during the time of the first outbreak of bubonic plague in England, a young monk is tasked with learning the truth about reports of people being brought back to life in a small village.\n &lt;a href=&quot;\nhttp://www.imdb.com/title/tt1181791/&quot; rel=&quot;nofollow&quot; target=&quot;_NEW&quot;&gt;\nhttp://www.imdb.com/title/tt1181791/&lt;/a&gt;\n\nSubtitles (srt) : Dutch.\n \nCovers included.\n\nHet Middeleeuwse Engeland wordt geteisterd door de pest. Lijken liggen bij honderden verspreid en het land is ondergedompeld in chaos. De Kerk verliest zijn greep op de bevolking, bij wie de angst overheerst.\n &lt;a href=&quot;\nhttp://www.moviemeter.nl/film/58223&quot; rel=&quot;nofollow&quot; target=&quot;_NEW&quot;&gt;\nhttp://www.moviemeter.nl/film/58223&lt;/a&gt;\n\nOndertitels (srt) : Nederlands.\n\nHoesjes bijgevoegd.\n\nGeneral\nComplete name                    : Black Death-AC3-XviD-DVDRip[Eng]2010 2Lions-TeamBlack Death-AC3-XviD-DVDRip[Eng]2010 2Lions-Team.avi\nFormat                           : AVI\nFormat/Info                      : Audio Video Interleave\nFile size                        : 1.36 GiB\nDuration                         : 1h 37mn\nOverall bit rate                 : 1 993 Kbps\nWriting application              : VirtualDubMod 1.5.4.1 (build 2178/release)\nWriting library                  : VirtualDubMod build 2178/release\n\nVideo\nID                               : 0\nFormat                           : MPEG-4 Visual\nFormat profile                   : Simple@L3\nFormat settings, BVOP            : No\nFormat settings, QPel            : No\nFormat settings, GMC             : No warppoints\nFormat settings, Matrix          : Default (H.263)\nCodec ID                         : XVID\nCodec ID/Hint                    : XviD\nDuration                         : 1h 37mn\nBit rate                         : 1 760 Kbps\nWidth                            : 720 pixels\nHeight                           : 400 pixels\nDisplay aspect ratio             : 16:9\nFrame rate                       : 25.000 fps\nResolution                       : 8 bits\nColorimetry                      : 4:2:0\nScan type                        : Progressive\nBits/(Pixel*Frame)               : 0.244\nStream size                      : 1.20 GiB (88%)\nWriting library                  : XviD 1.1.2 (UTC 2006-11-01)\n\nAudio\nID                               : 1\nFormat                           : AC-3\nFormat/Info                      : Audio Coding 3\nFormat_Settings_ModeExtension    : CM (complete main)\nCodec ID                         : 2000\nDuration                         : 1h 37mn\nBit rate mode                    : Constant\nBit rate                         : 224 Kbps\nChannel(s)                       : 6 channels\nChannel positions                : Front: L C R, Side: L R, LFE\nSampling rate                    : 48.0 KHz\nStream size                      : 156 MiB (11%)\nAlignment                        : Split accross interleaves\nInterleave, duration             : 40 ms (1.00 video frame)\nInterleave, preload duration     : 500 ms\n\n\nThanks to El_Nublo for the source.\n \nBrought to you by \n2Lions Team\n\nmeer zien??\nKom dan eens kijken op ons forum \n                     &lt;a href=&quot;\nhttp://www.2lions-site.nl&quot; rel=&quot;nofollow&quot; target=&quot;_NEW&quot;&gt;\nhttp://www.2lions-site.nl&lt;/a&gt;\n\n2Lions the site to be for all your Dutch MOVIES and more\n\n******************************************\n\nDON T HIT AND RUN Niet gelijk afhaken als de FILM binnen is blijf seeden. \n\nDon`t quit after you finished the download, but keep seeding\n\nThere are fake torrents from uploaders who use our team name.\nThose are not ours, or members from our team.\nWe 2Lions-Team are not responsible for the fake posts on our name\n\nWij 2Lions-Team zijn niet verantwoordelijk voor die zieke FAKE posten die op onze naam worden gedaan\n\nPlease check our site !!!\n\nto the fakers , get a life !!!","torrent":{"xt":"urn:btih:6a21b0aa5c4cac816b6c7c69c68cbab24c5d43d0","amp;dn":"Black+Death-AC3-XviD-DVDRip%5BEng%5D2010+2Lions-Team","amp;tr":["udp%3A%2F%2Ftracker.openbittorrent.com%3A80","udp%3A%2F%2Fopen.demonii.com%3A1337","udp%3A%2F%2Ftracker.coppersurfer.tk%3A6969","udp%3A%2F%2Fexodus.desync.com%3A6969"],"infoHash":"6a21b0aa5c4cac816b6c7c69c68cbab24c5d43d0","infoHashBuffer":{"type":"Buffer","data":[106,33,176,170,92,76,172,129,107,108,124,105,198,140,186,178,76,93,67,208]},"announce":[],"urlList":[]}}